<?xml version="1.0" encoding="UTF-8"?>
<svg id="Layer_2" data-name="Layer 2" xmlns="http://www.w3.org/2000/svg" viewBox="0 0 105.73 111.22">
  <defs>
    <style>
      .cls-1 {
        fill: #235727;
      }

      .cls-2 {
        fill: #e0a449;
      }

      .cls-3 {
        fill: #13110c;
      }

      .cls-4 {
        fill: #7f5026;
      }
    </style>
  </defs>
  <g id="Layer_1-2" data-name="Layer 1">
    <g>
      <g>
        <g>
          <path class="cls-3" d="M2.17,72.2h.16v19.5c0,2.38-.52,3.8-1.75,4.69-.54.39-.74,1.09-.44,1.69h0c.35.72,1.27.98,1.92.52,2.01-1.39,2.95-3.61,2.95-6.9v-22.52l-3.08.61c-.57.11-.98.61-.98,1.19h0c0,.67.54,1.22,1.22,1.22Z"/>
          <path class="cls-3" d="M51.3,68.78h.16v21.14h-9.5l2.86-10.21c.15-.54.15-1.12,0-1.66l-3.05-11.16c-.18-.67-.79-1.13-1.48-1.13h0c-.69,0-1.3.46-1.48,1.13l-3.05,11.16c-.15.55-.15,1.12,0,1.66l2.86,10.21h-6.51c-1.17-6.28-.94-11.51.67-20.81l-8.83,2.85v-8.29l-3.08.61c-.57.11-.98.61-.98,1.19h0c0,.67.54,1.22,1.22,1.22h.16v23.23h-3.59v-21.94c0-.94-1.02-1.53-1.84-1.06l-6.23,3.6c-.76.44-1.13,1.33-.92,2.17,1.54,6.13.42,13.78-1.2,17.98-.36.93.32,1.93,1.31,1.93h6.19v4.03h-7.08c-.74,0-1.34.6-1.34,1.34h0c0,.74.6,1.34,1.34,1.34h9.77v-6.71h36.48v-25.56c0-.67-.61-1.17-1.27-1.04l-1.82.36c-.57.11-.98.61-.98,1.19h0c0,.67.54,1.22,1.22,1.22ZM14.98,89.92h-4.13c1.03-4.01,1.37-11,.78-16.28-.08-.67.25-1.33.83-1.67l1.46-.86c.47-.28,1.06.06,1.06.61v18.2ZM23.94,89.92v-13.05c0-1.2.78-2.26,1.93-2.61l1.91-.58c.68-.21,1.35.34,1.29,1.05-.58,6.21-.5,9.61.21,15.19h-5.34ZM38.44,78.49l1.63-6.24c.06-.22.37-.22.43,0l1.63,6.24c.07.25.06.52-.01.77l-1.62,5.59c-.06.22-.37.22-.43,0l-1.62-5.59c-.07-.25-.08-.52-.01-.77Z"/>
          <path class="cls-3" d="M57.04,68.78h.16v22.49c0,.74.6,1.34,1.34,1.34h0c.74,0,1.34-.6,1.34-1.34v-24.22c0-.67-.61-1.17-1.27-1.04l-1.82.36c-.57.11-.98.61-.98,1.19h0c0,.67.54,1.22,1.22,1.22Z"/>
          <path class="cls-3" d="M83.08,68.78h.16s0,21.14,0,21.14h-6.17c-2.01-4.5-2.52-12.79-.84-18.63l-7.55-4.37c-.82-.48-1.85.12-1.85,1.07v21.93h-.75c-.51,0-.93.42-.93.93v7.13c0,.74.6,1.34,1.34,1.34h0c.74,0,1.34-.6,1.34-1.34v-5.37s11.04,0,11.04,0h5.45c.88,0,1.6-.72,1.6-1.6v-24.12c0-.59-.54-1.03-1.11-.91l-1.97.39c-.57.11-.98.61-.98,1.19h0c0,.67.54,1.22,1.22,1.22ZM69.52,89.92v-17.73c0-.75.82-1.22,1.47-.84l.95.56c.63.37,1,1.08.92,1.81-.58,5.27-.24,12.21.79,16.2h-4.13Z"/>
          <path class="cls-3" d="M99.62,89.92c1.07-4.36,1.38-11.85-.47-18.93,1.49.1,3.1.05,4.61-.1.75-.07,1.29-.75,1.19-1.5h0c-.09-.71-.73-1.23-1.44-1.16-1.93.19-3.8.16-6.1-.09-.95-.1-1.69.81-1.38,1.71h0c2.79,8.22,2.18,15.54.5,20.07h-4.2v-23.03c0-.59-.54-1.03-1.11-.91l-1.97.39c-.57.11-.98.61-.98,1.19h0c0,.67.54,1.22,1.22,1.22h.16v22.23c0,.88.72,1.6,1.6,1.6h13.14c.74,0,1.33-.6,1.33-1.33v-.02c0-.74-.6-1.33-1.33-1.33h-4.77Z"/>
        </g>
        <g>
          <path class="cls-1" d="M2.17,72.2h.16v19.5c0,2.38-.52,3.8-1.75,4.69-.54.39-.74,1.09-.44,1.69h0c.35.72,1.27.98,1.92.52,2.01-1.39,2.95-3.61,2.95-6.9v-22.52l-3.08.61c-.57.11-.98.61-.98,1.19h0c0,.67.54,1.22,1.22,1.22Z"/>
          <path class="cls-1" d="M51.3,68.78h.16v21.14h-9.5l2.86-10.21c.15-.54.15-1.12,0-1.66l-3.05-11.16c-.18-.67-.79-1.13-1.48-1.13h0c-.69,0-1.3.46-1.48,1.13l-3.05,11.16c-.15.55-.15,1.12,0,1.66l2.86,10.21h-6.51c-1.17-6.28-.94-11.51.67-20.81l-8.83,2.85v-8.29l-3.08.61c-.57.11-.98.61-.98,1.19h0c0,.67.54,1.22,1.22,1.22h.16v23.23h-3.59v-21.94c0-.94-1.02-1.53-1.84-1.06l-6.23,3.6c-.76.44-1.13,1.33-.92,2.17,1.54,6.13.42,13.78-1.2,17.98-.36.93.32,1.93,1.31,1.93h6.19v4.03h-7.08c-.74,0-1.34.6-1.34,1.34h0c0,.74.6,1.34,1.34,1.34h9.77v-6.71h36.48v-25.56c0-.67-.61-1.17-1.27-1.04l-1.82.36c-.57.11-.98.61-.98,1.19h0c0,.67.54,1.22,1.22,1.22ZM14.98,89.92h-4.13c1.03-4.01,1.37-11,.78-16.28-.08-.67.25-1.33.83-1.67l1.46-.86c.47-.28,1.06.06,1.06.61v18.2ZM23.94,89.92v-13.05c0-1.2.78-2.26,1.93-2.61l1.91-.58c.68-.21,1.35.34,1.29,1.05-.58,6.21-.5,9.61.21,15.19h-5.34ZM38.44,78.49l1.63-6.24c.06-.22.37-.22.43,0l1.63,6.24c.07.25.06.52-.01.77l-1.62,5.59c-.06.22-.37.22-.43,0l-1.62-5.59c-.07-.25-.08-.52-.01-.77Z"/>
          <path class="cls-1" d="M57.04,68.78h.16v22.49c0,.74.6,1.34,1.34,1.34h0c.74,0,1.34-.6,1.34-1.34v-24.22c0-.67-.61-1.17-1.27-1.04l-1.82.36c-.57.11-.98.61-.98,1.19h0c0,.67.54,1.22,1.22,1.22Z"/>
          <path class="cls-1" d="M83.08,68.78h.16s0,21.14,0,21.14h-6.17c-2.01-4.5-2.52-12.79-.84-18.63l-7.55-4.37c-.82-.48-1.85.12-1.85,1.07v21.93h-.75c-.51,0-.93.42-.93.93v7.13c0,.74.6,1.34,1.34,1.34h0c.74,0,1.34-.6,1.34-1.34v-5.37s11.04,0,11.04,0h5.45c.88,0,1.6-.72,1.6-1.6v-24.12c0-.59-.54-1.03-1.11-.91l-1.97.39c-.57.11-.98.61-.98,1.19h0c0,.67.54,1.22,1.22,1.22ZM69.52,89.92v-17.73c0-.75.82-1.22,1.47-.84l.95.56c.63.37,1,1.08.92,1.81-.58,5.27-.24,12.21.79,16.2h-4.13Z"/>
          <path class="cls-1" d="M99.62,89.92c1.07-4.36,1.38-11.85-.47-18.93,1.49.1,3.1.05,4.61-.1.75-.07,1.29-.75,1.19-1.5h0c-.09-.71-.73-1.23-1.44-1.16-1.93.19-3.8.16-6.1-.09-.95-.1-1.69.81-1.38,1.71h0c2.79,8.22,2.18,15.54.5,20.07h-4.2v-23.03c0-.59-.54-1.03-1.11-.91l-1.97.39c-.57.11-.98.61-.98,1.19h0c0,.67.54,1.22,1.22,1.22h.16v22.23c0,.88.72,1.6,1.6,1.6h13.14c.74,0,1.33-.6,1.33-1.33v-.02c0-.74-.6-1.33-1.33-1.33h-4.77Z"/>
        </g>
      </g>
      <g>
        <g>
          <path class="cls-4" d="M68.8,41.32v-9.47c0-1-.21-1.96-.58-2.84-.55-1.31-1.48-2.42-2.64-3.2-1.16-.79-2.57-1.25-4.08-1.25h-17.27c-.51,0-.99-.1-1.42-.29-.65-.28-1.22-.74-1.61-1.33-.39-.59-.62-1.28-.62-2.05h0c0-.51.1-.99.29-1.42.28-.65.74-1.22,1.33-1.61.59-.39,1.28-.62,2.05-.62h18.92c.81,0,1.47-.66,1.47-1.47s-.66-1.47-1.47-1.47h-18.92c-.91,0-1.78.18-2.57.52-1.19.5-2.19,1.34-2.9,2.39-.71,1.05-1.13,2.33-1.13,3.69h0c0,.91.18,1.78.52,2.57.5,1.19,1.34,2.19,2.39,2.9,1.05.71,2.33,1.13,3.69,1.13h17.27c.6,0,1.17.12,1.69.34.78.33,1.45.88,1.92,1.58.47.7.74,1.53.74,2.43v9.47c0,.81.66,1.47,1.47,1.47s1.47-.66,1.47-1.47Z"/>
          <path class="cls-4" d="M36.93,29.53v16.9c0,2.62.87,5.04,2.34,6.97,1.47,1.94,3.54,3.39,5.93,4.1.78.23,1.59-.22,1.82-.99.23-.78-.22-1.59-.99-1.82-1.78-.52-3.33-1.61-4.42-3.06-1.1-1.45-1.75-3.24-1.75-5.2v-16.9c0-.81-.66-1.47-1.47-1.47s-1.47.66-1.47,1.47Z"/>
          <path class="cls-4" d="M65.86,46.01v.43c0,1.19-.24,2.32-.68,3.35-.65,1.54-1.75,2.86-3.12,3.79-1.38.93-3.02,1.47-4.81,1.47h0c-1.23,0-2.38-.25-3.44-.71-1.52-.66-2.82-1.76-3.73-3.12-.91-1.37-1.44-3-1.44-4.77v-7.25c0-.58.12-1.12.33-1.62.31-.74.84-1.38,1.51-1.83.66-.45,1.46-.71,2.32-.71h0c.58,0,1.12.12,1.62.33.74.31,1.38.84,1.83,1.51.45.66.71,1.46.71,2.32v8.35c0,1.47-.42,2.83-1.14,3.98-.72,1.15-1.76,2.1-2.98,2.72-.72.37-1.01,1.25-.65,1.97s1.25,1.01,1.97.65c1.7-.86,3.13-2.17,4.14-3.78,1.01-1.6,1.59-3.51,1.59-5.54v-8.35c0-.97-.2-1.91-.56-2.76-.54-1.27-1.44-2.35-2.57-3.12-1.13-.76-2.5-1.21-3.96-1.21h0c-.97,0-1.91.2-2.76.56-1.27.54-2.35,1.44-3.12,2.57-.76,1.13-1.21,2.5-1.21,3.96v7.25c0,2.36.71,4.57,1.94,6.4,1.22,1.83,2.95,3.29,5,4.18,1.41.62,2.98.96,4.61.96h0c1.59,0,3.11-.32,4.49-.91,2.07-.88,3.83-2.34,5.08-4.18,1.24-1.84,1.97-4.07,1.97-6.46v-.43c0-.81-.66-1.47-1.47-1.47s-1.47.66-1.47,1.47Z"/>
          <path class="cls-4" d="M57.67,1.47V0h-13.26c-.52,0-1.01.28-1.27.73l-2.22,3.85c-.26.45-.26,1.01,0,1.47l2.22,3.85c.26.45.75.73,1.27.73h13.26c.52,0,1.01-.28,1.27-.73l2.22-3.85c.26-.45.26-1.01,0-1.47l-2.22-3.85c-.26-.45-.75-.73-1.27-.73v1.47l-1.27.73,1.8,3.12-1.38,2.38h-11.56l-1.38-2.38,1.38-2.38h12.41v-1.47l-1.27.73,1.27-.73Z"/>
        </g>
        <g>
          <path class="cls-2" d="M68.8,41.32v-9.47c0-1-.21-1.96-.58-2.84-.55-1.31-1.48-2.42-2.64-3.2-1.16-.79-2.57-1.25-4.08-1.25h-17.27c-.51,0-.99-.1-1.42-.29-.65-.28-1.22-.74-1.61-1.33-.39-.59-.62-1.28-.62-2.05h0c0-.51.1-.99.29-1.42.28-.65.74-1.22,1.33-1.61.59-.39,1.28-.62,2.05-.62h18.92c.81,0,1.47-.66,1.47-1.47s-.66-1.47-1.47-1.47h-18.92c-.91,0-1.78.18-2.57.52-1.19.5-2.19,1.34-2.9,2.39-.71,1.05-1.13,2.33-1.13,3.69h0c0,.91.18,1.78.52,2.57.5,1.19,1.34,2.19,2.39,2.9,1.05.71,2.33,1.13,3.69,1.13h17.27c.6,0,1.17.12,1.69.34.78.33,1.45.88,1.92,1.58.47.7.74,1.53.74,2.43v9.47c0,.81.66,1.47,1.47,1.47s1.47-.66,1.47-1.47Z"/>
          <path class="cls-2" d="M36.93,29.53v16.9c0,2.62.87,5.04,2.34,6.97,1.47,1.94,3.54,3.39,5.93,4.1.78.23,1.59-.22,1.82-.99.23-.78-.22-1.59-.99-1.82-1.78-.52-3.33-1.61-4.42-3.06-1.1-1.45-1.75-3.24-1.75-5.2v-16.9c0-.81-.66-1.47-1.47-1.47s-1.47.66-1.47,1.47Z"/>
          <path class="cls-2" d="M65.86,46.01v.43c0,1.19-.24,2.32-.68,3.35-.65,1.54-1.75,2.86-3.12,3.79-1.38.93-3.02,1.47-4.81,1.47h0c-1.23,0-2.38-.25-3.44-.71-1.52-.66-2.82-1.76-3.73-3.12-.91-1.37-1.44-3-1.44-4.77v-7.25c0-.58.12-1.12.33-1.62.31-.74.84-1.38,1.51-1.83.66-.45,1.46-.71,2.32-.71h0c.58,0,1.12.12,1.62.33.74.31,1.38.84,1.83,1.51.45.66.71,1.46.71,2.32v8.35c0,1.47-.42,2.83-1.14,3.98-.72,1.15-1.76,2.1-2.98,2.72-.72.37-1.01,1.25-.65,1.97s1.25,1.01,1.97.65c1.7-.86,3.13-2.17,4.14-3.78,1.01-1.6,1.59-3.51,1.59-5.54v-8.35c0-.97-.2-1.91-.56-2.76-.54-1.27-1.44-2.35-2.57-3.12-1.13-.76-2.5-1.21-3.96-1.21h0c-.97,0-1.91.2-2.76.56-1.27.54-2.35,1.44-3.12,2.57-.76,1.13-1.21,2.5-1.21,3.96v7.25c0,2.36.71,4.57,1.94,6.4,1.22,1.83,2.95,3.29,5,4.18,1.41.62,2.98.96,4.61.96h0c1.59,0,3.11-.32,4.49-.91,2.07-.88,3.83-2.34,5.08-4.18,1.24-1.84,1.97-4.07,1.97-6.46v-.43c0-.81-.66-1.47-1.47-1.47s-1.47.66-1.47,1.47Z"/>
          <path class="cls-2" d="M57.67,1.47V0h-13.26c-.52,0-1.01.28-1.27.73l-2.22,3.85c-.26.45-.26,1.01,0,1.47l2.22,3.85c.26.45.75.73,1.27.73h13.26c.52,0,1.01-.28,1.27-.73l2.22-3.85c.26-.45.26-1.01,0-1.47l-2.22-3.85c-.26-.45-.75-.73-1.27-.73v1.47l-1.27.73,1.8,3.12-1.38,2.38h-11.56l-1.38-2.38,1.38-2.38h12.41v-1.47l-1.27.73,1.27-.73Z"/>
        </g>
      </g>
      <g>
        <g>
          <path class="cls-3" d="M12.41,104.14v5.35h-.72v-5.35h-1.91v-.63h4.53v.63h-1.9Z"/>
          <path class="cls-3" d="M15.24,103.15h.69v2.63h.03c.11-.25.26-.45.46-.59s.46-.22.79-.22c.46,0,.82.15,1.09.44.27.29.4.71.4,1.25v2.84h-.69v-2.73c0-.8-.33-1.2-1-1.2-.14,0-.27.02-.4.05s-.24.09-.35.15c-.1.07-.18.16-.24.26-.06.11-.09.23-.09.37v3.08h-.69v-6.35Z"/>
          <path class="cls-3" d="M21.78,109.6c-.3,0-.58-.05-.82-.16-.24-.11-.45-.26-.63-.47s-.31-.45-.4-.73c-.09-.28-.14-.6-.14-.96s.05-.67.14-.95c.09-.29.23-.53.4-.73s.38-.36.63-.47c.24-.11.52-.16.82-.16s.56.05.8.16c.23.11.43.26.6.45.17.19.29.42.38.68.09.26.13.55.13.86v.33h-3.18v.21c0,.19.03.36.09.53.06.16.15.3.26.42.11.12.25.21.41.28s.35.1.55.1c.28,0,.52-.07.73-.2.21-.13.37-.32.48-.57l.49.35c-.14.3-.37.55-.67.74-.3.19-.66.28-1.08.28ZM21.78,105.54c-.19,0-.36.03-.51.1-.15.07-.29.16-.4.28-.11.12-.2.26-.26.42-.06.16-.09.34-.09.53v.06h2.45v-.09c0-.39-.11-.71-.32-.94-.21-.24-.5-.35-.85-.35Z"/>
          <path class="cls-3" d="M26.38,105.07h.67l.47,1.91.47,1.94h.02l.54-1.94.56-1.91h.61l.57,1.91.55,1.94h.02l.45-1.94.48-1.91h.64l-1.18,4.43h-.85l-.62-2.13-.39-1.35h-.02l-.38,1.35-.62,2.13h-.83l-1.18-4.43Z"/>
          <path class="cls-3" d="M35.07,109.6c-.3,0-.57-.05-.81-.16-.25-.11-.46-.26-.63-.47s-.31-.45-.41-.73c-.1-.28-.15-.6-.15-.96s.05-.67.15-.95.23-.53.41-.73.38-.36.63-.47c.25-.11.52-.16.81-.16s.57.05.81.16c.24.11.45.26.63.47.18.2.31.45.41.73s.15.6.15.95-.05.67-.15.96c-.1.28-.23.53-.41.73-.18.2-.39.36-.63.47-.24.11-.51.16-.81.16ZM35.07,108.99c.37,0,.67-.11.91-.34.23-.23.35-.58.35-1.05v-.63c0-.47-.12-.82-.35-1.05-.23-.23-.54-.34-.91-.34s-.67.11-.91.34c-.23.23-.35.58-.35,1.05v.63c0,.47.12.82.35,1.05.23.23.54.34.91.34Z"/>
          <path class="cls-3" d="M38.2,109.5v-4.43h.69v.81h.04c.08-.21.22-.4.43-.57.21-.17.49-.25.85-.25h.27v.69h-.4c-.37,0-.66.07-.87.21-.21.14-.31.32-.31.53v3h-.69Z"/>
          <path class="cls-3" d="M42.08,109.5c-.24,0-.42-.07-.55-.2-.12-.13-.18-.3-.18-.51v-5.64h.69v5.74h.65v.61h-.61Z"/>
          <path class="cls-3" d="M46.51,108.79h-.03c-.27.54-.7.82-1.3.82-.27,0-.52-.05-.75-.16-.22-.11-.41-.26-.57-.46-.16-.2-.28-.44-.36-.73-.08-.29-.12-.61-.12-.96s.04-.68.12-.96c.08-.29.2-.53.36-.73.16-.2.35-.35.57-.46.22-.11.47-.16.75-.16.31,0,.57.07.79.2.22.13.39.34.5.62h.03v-2.63h.69v6.35h-.69v-.71ZM45.37,108.99c.15,0,.3-.02.44-.06s.26-.1.37-.18c.1-.08.18-.17.24-.28.06-.11.09-.24.09-.38v-1.66c0-.12-.03-.23-.09-.34-.06-.11-.14-.2-.24-.27-.1-.07-.22-.13-.37-.18-.14-.04-.29-.06-.44-.06-.39,0-.69.12-.92.37-.22.24-.33.56-.33.96v.76c0,.4.11.72.33.96.22.24.53.37.92.37Z"/>
          <path class="cls-3" d="M52.36,109.6c-.3,0-.57-.05-.81-.16-.25-.11-.46-.26-.63-.47s-.31-.45-.41-.73c-.1-.28-.15-.6-.15-.96s.05-.67.15-.95.23-.53.41-.73.38-.36.63-.47c.25-.11.52-.16.81-.16s.57.05.81.16c.24.11.45.26.63.47.18.2.31.45.41.73s.15.6.15.95-.05.67-.15.96c-.1.28-.23.53-.41.73-.18.2-.39.36-.63.47-.24.11-.51.16-.81.16ZM52.36,108.99c.37,0,.67-.11.91-.34.23-.23.35-.58.35-1.05v-.63c0-.47-.12-.82-.35-1.05-.23-.23-.54-.34-.91-.34s-.67.11-.91.34c-.23.23-.35.58-.35,1.05v.63c0,.47.12.82.35,1.05.23.23.54.34.91.34Z"/>
          <path class="cls-3" d="M55.68,105.68h-.72v-.61h.72v-.89c0-.31.08-.56.24-.75s.4-.28.73-.28h.67v.61h-.95v1.31h.95v.61h-.95v3.82h-.69v-3.82Z"/>
          <path class="cls-3" d="M60.24,105.07h.69v.71h.03c.11-.28.28-.48.5-.62.22-.13.48-.2.79-.2.27,0,.52.05.75.16s.41.26.57.46c.16.2.28.44.36.73.08.29.12.61.12.96s-.04.68-.12.96c-.08.29-.2.53-.36.73-.16.2-.35.35-.57.46-.22.11-.47.16-.75.16-.6,0-1.03-.27-1.3-.82h-.03v2.43h-.69v-6.14ZM62.07,108.99c.39,0,.69-.12.92-.37.22-.24.33-.56.33-.96v-.76c0-.4-.11-.72-.33-.96-.22-.24-.53-.37-.92-.37-.15,0-.3.02-.44.06-.14.04-.26.1-.36.18-.1.07-.18.17-.24.27-.06.11-.09.22-.09.34v1.66c0,.14.03.27.09.38.06.11.14.21.24.28.1.08.22.14.36.18s.29.06.44.06Z"/>
          <path class="cls-3" d="M66.88,109.6c-.3,0-.58-.05-.82-.16-.24-.11-.45-.26-.63-.47s-.31-.45-.4-.73c-.09-.28-.14-.6-.14-.96s.05-.67.14-.95c.09-.29.23-.53.4-.73s.38-.36.63-.47c.24-.11.52-.16.82-.16s.56.05.8.16c.23.11.43.26.6.45.17.19.29.42.38.68.09.26.13.55.13.86v.33h-3.18v.21c0,.19.03.36.09.53.06.16.15.3.26.42.11.12.25.21.41.28s.35.1.55.1c.28,0,.52-.07.73-.2.21-.13.37-.32.48-.57l.49.35c-.14.3-.37.55-.67.74-.3.19-.66.28-1.08.28ZM66.88,105.54c-.19,0-.36.03-.51.1-.15.07-.29.16-.4.28-.11.12-.2.26-.26.42-.06.16-.09.34-.09.53v.06h2.45v-.09c0-.39-.11-.71-.32-.94-.21-.24-.5-.35-.85-.35Z"/>
          <path class="cls-3" d="M69.93,109.5v-4.43h.69v.81h.04c.08-.21.22-.4.43-.57.21-.17.49-.25.85-.25h.27v.69h-.4c-.37,0-.66.07-.87.21-.21.14-.31.32-.31.53v3h-.69Z"/>
          <path class="cls-3" d="M73.35,105.68h-.72v-.61h.72v-.89c0-.31.08-.56.24-.75s.4-.28.73-.28h.67v.61h-.95v1.31h.95v.61h-.95v3.82h-.69v-3.82Z"/>
          <path class="cls-3" d="M78.62,108.79h-.03c-.05.1-.1.2-.17.3-.07.1-.15.19-.24.26-.1.08-.21.14-.35.18-.14.05-.3.07-.48.07-.46,0-.82-.15-1.09-.44-.27-.29-.4-.71-.4-1.25v-2.84h.69v2.73c0,.8.34,1.2,1.01,1.2.14,0,.27-.02.4-.05s.24-.09.34-.15c.1-.07.18-.16.24-.26.06-.11.09-.23.09-.38v-3.07h.69v4.43h-.69v-.71Z"/>
          <path class="cls-3" d="M80.77,109.5v-4.43h.69v.71h.03c.05-.11.11-.22.18-.32s.15-.19.24-.26c.09-.07.2-.13.33-.17.13-.04.27-.06.45-.06.29,0,.56.07.81.21s.43.37.55.68h.02c.08-.24.23-.45.45-.62.22-.18.52-.27.9-.27.45,0,.81.15,1.06.44s.38.71.38,1.25v2.84h-.69v-2.73c0-.4-.08-.69-.23-.89-.15-.2-.4-.3-.74-.3-.14,0-.27.02-.39.05-.12.03-.23.09-.33.15-.1.07-.17.16-.23.26-.06.11-.09.23-.09.37v3.08h-.69v-2.73c0-.4-.08-.69-.23-.89-.15-.2-.4-.3-.72-.3-.14,0-.27.02-.4.05s-.24.09-.33.15c-.1.07-.18.16-.24.26-.06.11-.09.23-.09.37v3.08h-.69Z"/>
          <path class="cls-3" d="M89.92,109.6c-.3,0-.58-.05-.82-.16-.24-.11-.45-.26-.63-.47s-.31-.45-.4-.73c-.09-.28-.14-.6-.14-.96s.05-.67.14-.95c.09-.29.23-.53.4-.73s.38-.36.63-.47c.24-.11.52-.16.82-.16s.56.05.8.16c.23.11.43.26.6.45.17.19.29.42.38.68.09.26.13.55.13.86v.33h-3.18v.21c0,.19.03.36.09.53.06.16.15.3.26.42.11.12.25.21.41.28s.35.1.55.1c.28,0,.52-.07.73-.2.21-.13.37-.32.48-.57l.49.35c-.14.3-.37.55-.67.74-.3.19-.66.28-1.08.28ZM89.92,105.54c-.19,0-.36.03-.51.1-.15.07-.29.16-.4.28-.11.12-.2.26-.26.42-.06.16-.09.34-.09.53v.06h2.45v-.09c0-.39-.11-.71-.32-.94-.21-.24-.5-.35-.85-.35Z"/>
          <path class="cls-3" d="M94.3,109.6c-.41,0-.76-.08-1.03-.24-.28-.16-.52-.37-.72-.63l.49-.39c.17.22.36.38.58.5.21.12.46.18.74.18s.52-.06.68-.19c.16-.13.24-.3.24-.53,0-.17-.06-.32-.17-.44-.11-.12-.31-.21-.61-.25l-.35-.05c-.21-.03-.39-.07-.57-.13s-.32-.14-.45-.24-.23-.22-.3-.37c-.07-.15-.11-.33-.11-.53,0-.22.04-.41.12-.57.08-.16.19-.3.33-.41.14-.11.31-.19.5-.24s.4-.08.63-.08c.36,0,.66.06.91.19.24.13.46.3.64.52l-.45.41c-.1-.14-.24-.26-.43-.37-.19-.11-.43-.17-.71-.17s-.5.06-.65.18c-.15.12-.22.29-.22.5s.07.37.22.47.36.17.63.21l.34.05c.49.07.84.22,1.05.42.21.21.31.48.31.82,0,.43-.15.77-.44,1.01-.29.25-.69.37-1.2.37Z"/>
        </g>
        <g>
          <path class="cls-2" d="M12.41,104.14v5.35h-.72v-5.35h-1.91v-.63h4.53v.63h-1.9Z"/>
          <path class="cls-2" d="M15.24,103.15h.69v2.63h.03c.11-.25.26-.45.46-.59s.46-.22.79-.22c.46,0,.82.15,1.09.44.27.29.4.71.4,1.25v2.84h-.69v-2.73c0-.8-.33-1.2-1-1.2-.14,0-.27.02-.4.05s-.24.09-.35.15c-.1.07-.18.16-.24.26-.06.11-.09.23-.09.37v3.08h-.69v-6.35Z"/>
          <path class="cls-2" d="M21.78,109.6c-.3,0-.58-.05-.82-.16-.24-.11-.45-.26-.63-.47s-.31-.45-.4-.73c-.09-.28-.14-.6-.14-.96s.05-.67.14-.95c.09-.29.23-.53.4-.73s.38-.36.63-.47c.24-.11.52-.16.82-.16s.56.05.8.16c.23.11.43.26.6.45.17.19.29.42.38.68.09.26.13.55.13.86v.33h-3.18v.21c0,.19.03.36.09.53.06.16.15.3.26.42.11.12.25.21.41.28s.35.1.55.1c.28,0,.52-.07.73-.2.21-.13.37-.32.48-.57l.49.35c-.14.3-.37.55-.67.74-.3.19-.66.28-1.08.28ZM21.78,105.54c-.19,0-.36.03-.51.1-.15.07-.29.16-.4.28-.11.12-.2.26-.26.42-.06.16-.09.34-.09.53v.06h2.45v-.09c0-.39-.11-.71-.32-.94-.21-.24-.5-.35-.85-.35Z"/>
          <path class="cls-2" d="M26.38,105.07h.67l.47,1.91.47,1.94h.02l.54-1.94.56-1.91h.61l.57,1.91.55,1.94h.02l.45-1.94.48-1.91h.64l-1.18,4.43h-.85l-.62-2.13-.39-1.35h-.02l-.38,1.35-.62,2.13h-.83l-1.18-4.43Z"/>
          <path class="cls-2" d="M35.07,109.6c-.3,0-.57-.05-.81-.16-.25-.11-.46-.26-.63-.47s-.31-.45-.41-.73c-.1-.28-.15-.6-.15-.96s.05-.67.15-.95.23-.53.41-.73.38-.36.63-.47c.25-.11.52-.16.81-.16s.57.05.81.16c.24.11.45.26.63.47.18.2.31.45.41.73s.15.6.15.95-.05.67-.15.96c-.1.28-.23.53-.41.73-.18.2-.39.36-.63.47-.24.11-.51.16-.81.16ZM35.07,108.99c.37,0,.67-.11.91-.34.23-.23.35-.58.35-1.05v-.63c0-.47-.12-.82-.35-1.05-.23-.23-.54-.34-.91-.34s-.67.11-.91.34c-.23.23-.35.58-.35,1.05v.63c0,.47.12.82.35,1.05.23.23.54.34.91.34Z"/>
          <path class="cls-2" d="M38.2,109.5v-4.43h.69v.81h.04c.08-.21.22-.4.43-.57.21-.17.49-.25.85-.25h.27v.69h-.4c-.37,0-.66.07-.87.21-.21.14-.31.32-.31.53v3h-.69Z"/>
          <path class="cls-2" d="M42.08,109.5c-.24,0-.42-.07-.55-.2-.12-.13-.18-.3-.18-.51v-5.64h.69v5.74h.65v.61h-.61Z"/>
          <path class="cls-2" d="M46.51,108.79h-.03c-.27.54-.7.82-1.3.82-.27,0-.52-.05-.75-.16-.22-.11-.41-.26-.57-.46-.16-.2-.28-.44-.36-.73-.08-.29-.12-.61-.12-.96s.04-.68.12-.96c.08-.29.2-.53.36-.73.16-.2.35-.35.57-.46.22-.11.47-.16.75-.16.31,0,.57.07.79.2.22.13.39.34.5.62h.03v-2.63h.69v6.35h-.69v-.71ZM45.37,108.99c.15,0,.3-.02.44-.06s.26-.1.37-.18c.1-.08.18-.17.24-.28.06-.11.09-.24.09-.38v-1.66c0-.12-.03-.23-.09-.34-.06-.11-.14-.2-.24-.27-.1-.07-.22-.13-.37-.18-.14-.04-.29-.06-.44-.06-.39,0-.69.12-.92.37-.22.24-.33.56-.33.96v.76c0,.4.11.72.33.96.22.24.53.37.92.37Z"/>
          <path class="cls-2" d="M52.36,109.6c-.3,0-.57-.05-.81-.16-.25-.11-.46-.26-.63-.47s-.31-.45-.41-.73c-.1-.28-.15-.6-.15-.96s.05-.67.15-.95.23-.53.41-.73.38-.36.63-.47c.25-.11.52-.16.81-.16s.57.05.81.16c.24.11.45.26.63.47.18.2.31.45.41.73s.15.6.15.95-.05.67-.15.96c-.1.28-.23.53-.41.73-.18.2-.39.36-.63.47-.24.11-.51.16-.81.16ZM52.36,108.99c.37,0,.67-.11.91-.34.23-.23.35-.58.35-1.05v-.63c0-.47-.12-.82-.35-1.05-.23-.23-.54-.34-.91-.34s-.67.11-.91.34c-.23.23-.35.58-.35,1.05v.63c0,.47.12.82.35,1.05.23.23.54.34.91.34Z"/>
          <path class="cls-2" d="M55.68,105.68h-.72v-.61h.72v-.89c0-.31.08-.56.24-.75s.4-.28.73-.28h.67v.61h-.95v1.31h.95v.61h-.95v3.82h-.69v-3.82Z"/>
          <path class="cls-2" d="M60.24,105.07h.69v.71h.03c.11-.28.28-.48.5-.62.22-.13.48-.2.79-.2.27,0,.52.05.75.16s.41.26.57.46c.16.2.28.44.36.73.08.29.12.61.12.96s-.04.68-.12.96c-.08.29-.2.53-.36.73-.16.2-.35.35-.57.46-.22.11-.47.16-.75.16-.6,0-1.03-.27-1.3-.82h-.03v2.43h-.69v-6.14ZM62.07,108.99c.39,0,.69-.12.92-.37.22-.24.33-.56.33-.96v-.76c0-.4-.11-.72-.33-.96-.22-.24-.53-.37-.92-.37-.15,0-.3.02-.44.06-.14.04-.26.1-.36.18-.1.07-.18.17-.24.27-.06.11-.09.22-.09.34v1.66c0,.14.03.27.09.38.06.11.14.21.24.28.1.08.22.14.36.18s.29.06.44.06Z"/>
          <path class="cls-2" d="M66.88,109.6c-.3,0-.58-.05-.82-.16-.24-.11-.45-.26-.63-.47s-.31-.45-.4-.73c-.09-.28-.14-.6-.14-.96s.05-.67.14-.95c.09-.29.23-.53.4-.73s.38-.36.63-.47c.24-.11.52-.16.82-.16s.56.05.8.16c.23.11.43.26.6.45.17.19.29.42.38.68.09.26.13.55.13.86v.33h-3.18v.21c0,.19.03.36.09.53.06.16.15.3.26.42.11.12.25.21.41.28s.35.1.55.1c.28,0,.52-.07.73-.2.21-.13.37-.32.48-.57l.49.35c-.14.3-.37.55-.67.74-.3.19-.66.28-1.08.28ZM66.88,105.54c-.19,0-.36.03-.51.1-.15.07-.29.16-.4.28-.11.12-.2.26-.26.42-.06.16-.09.34-.09.53v.06h2.45v-.09c0-.39-.11-.71-.32-.94-.21-.24-.5-.35-.85-.35Z"/>
          <path class="cls-2" d="M69.93,109.5v-4.43h.69v.81h.04c.08-.21.22-.4.43-.57.21-.17.49-.25.85-.25h.27v.69h-.4c-.37,0-.66.07-.87.21-.21.14-.31.32-.31.53v3h-.69Z"/>
          <path class="cls-2" d="M73.35,105.68h-.72v-.61h.72v-.89c0-.31.08-.56.24-.75s.4-.28.73-.28h.67v.61h-.95v1.31h.95v.61h-.95v3.82h-.69v-3.82Z"/>
          <path class="cls-2" d="M78.62,108.79h-.03c-.05.1-.1.2-.17.3-.07.1-.15.19-.24.26-.1.08-.21.14-.35.18-.14.05-.3.07-.48.07-.46,0-.82-.15-1.09-.44-.27-.29-.4-.71-.4-1.25v-2.84h.69v2.73c0,.8.34,1.2,1.01,1.2.14,0,.27-.02.4-.05s.24-.09.34-.15c.1-.07.18-.16.24-.26.06-.11.09-.23.09-.38v-3.07h.69v4.43h-.69v-.71Z"/>
          <path class="cls-2" d="M80.77,109.5v-4.43h.69v.71h.03c.05-.11.11-.22.18-.32s.15-.19.24-.26c.09-.07.2-.13.33-.17.13-.04.27-.06.45-.06.29,0,.56.07.81.21s.43.37.55.68h.02c.08-.24.23-.45.45-.62.22-.18.52-.27.9-.27.45,0,.81.15,1.06.44s.38.71.38,1.25v2.84h-.69v-2.73c0-.4-.08-.69-.23-.89-.15-.2-.4-.3-.74-.3-.14,0-.27.02-.39.05-.12.03-.23.09-.33.15-.1.07-.17.16-.23.26-.06.11-.09.23-.09.37v3.08h-.69v-2.73c0-.4-.08-.69-.23-.89-.15-.2-.4-.3-.72-.3-.14,0-.27.02-.4.05s-.24.09-.33.15c-.1.07-.18.16-.24.26-.06.11-.09.23-.09.37v3.08h-.69Z"/>
          <path class="cls-2" d="M89.92,109.6c-.3,0-.58-.05-.82-.16-.24-.11-.45-.26-.63-.47s-.31-.45-.4-.73c-.09-.28-.14-.6-.14-.96s.05-.67.14-.95c.09-.29.23-.53.4-.73s.38-.36.63-.47c.24-.11.52-.16.82-.16s.56.05.8.16c.23.11.43.26.6.45.17.19.29.42.38.68.09.26.13.55.13.86v.33h-3.18v.21c0,.19.03.36.09.53.06.16.15.3.26.42.11.12.25.21.41.28s.35.1.55.1c.28,0,.52-.07.73-.2.21-.13.37-.32.48-.57l.49.35c-.14.3-.37.55-.67.74-.3.19-.66.28-1.08.28ZM89.92,105.54c-.19,0-.36.03-.51.1-.15.07-.29.16-.4.28-.11.12-.2.26-.26.42-.06.16-.09.34-.09.53v.06h2.45v-.09c0-.39-.11-.71-.32-.94-.21-.24-.5-.35-.85-.35Z"/>
          <path class="cls-2" d="M94.3,109.6c-.41,0-.76-.08-1.03-.24-.28-.16-.52-.37-.72-.63l.49-.39c.17.22.36.38.58.5.21.12.46.18.74.18s.52-.06.68-.19c.16-.13.24-.3.24-.53,0-.17-.06-.32-.17-.44-.11-.12-.31-.21-.61-.25l-.35-.05c-.21-.03-.39-.07-.57-.13s-.32-.14-.45-.24-.23-.22-.3-.37c-.07-.15-.11-.33-.11-.53,0-.22.04-.41.12-.57.08-.16.19-.3.33-.41.14-.11.31-.19.5-.24s.4-.08.63-.08c.36,0,.66.06.91.19.24.13.46.3.64.52l-.45.41c-.1-.14-.24-.26-.43-.37-.19-.11-.43-.17-.71-.17s-.5.06-.65.18c-.15.12-.22.29-.22.5s.07.37.22.47.36.17.63.21l.34.05c.49.07.84.22,1.05.42.21.21.31.48.31.82,0,.43-.15.77-.44,1.01-.29.25-.69.37-1.2.37Z"/>
        </g>
      </g>
    </g>
  </g>
</svg>